<svg xmlns="http://www.w3.org/2000/svg" width="32" height="32" viewBox="0 0 24 24"><path fill="#777777" d="M16.792 8.721c0-1.14-.532-2.314-.729-2.76c.716.519 3.223 1.95 3.223 6.27c0 4.809-4.534 6.42-6.806 6.626H8.057V17.85c0-2.957 3.322-3.995 5.7-5.036c2.375-1.037 3.039-2.661 3.039-4.093z"/><path fill="#777777" d="M8.057 18.771v-.921q-.002-.271.035-.523c1.165-2.392 3.57-3.056 4.225-3.146c.686-.098 4.038-.78 5.602-1.594c.844-.437 1.144-1.359 1.204-2.143a9.4 9.4 0 0 1 .163 1.787a6.5 6.5 0 0 1-.309 2.036l-6.334 4.526l-.266.064H8.156a1 1 0 0 1-.103-.086z"/><path fill="#777777" d="M19.286 12.377c-.094 4.693-4.56 6.274-6.806 6.48H8.057v-.236l.035-.283c.522-3.377 4.95-3.964 8.01-4.093c1.928-.085 2.841-1.075 3.188-1.868zM5.143 11.134v5.229c.909-1.937 3.763-3.099 5.284-3.583c1.526-.484 3.035-1.097 3.035-1.774c0-.678-2.079-.935-2.079-1.612c0-.291.442-.968 1.35-1.547c.909-.583 1.976-1.517 1.976-2.13c0-.853-1.924-1.024-2.884-1.003c-4.753 0-6.682 4.586-6.682 6.42"/><path fill="#777777" d="M5.143 16.363v-5.229c0-.986.557-2.76 1.804-4.196C9.544 5.91 13.38 4.581 13.38 5.327c0 .857-1.234 1.671-2.863 2.743c-.398.266-.822.54-1.255.84c-2.208 1.517-2.953 2.417-2.953 3.84c0 .84.24 1.448.45 1.796c-.695.505-1.286 1.11-1.616 1.817"/><path fill="#777777" d="M12.857 4.757c.258.167.459.356.459.54c0 .45-.78 1.453-3.146 2.516c-2.361 1.063-5.014 2.734-5.027 4.405v-1.084c0-1.834 1.933-6.42 6.682-6.42c.282-.004.65.004 1.028.043z"/></svg>
